<svg xmlns="http://www.w3.org/2000/svg" xmlns:xlink="http://www.w3.org/1999/xlink" width="50" zoomAndPan="magnify" viewBox="0 0 37.5 37.499999" height="50" preserveAspectRatio="xMidYMid meet" version="1.0"><defs><clipPath id="6e3ae6dfab"><path d="M 0 14 L 37.007812 14 L 37.007812 31.710938 L 0 31.710938 Z M 0 14 " clip-rule="nonzero"/></clipPath><clipPath id="9ed025255e"><path d="M 14 2.84375 L 23 2.84375 L 23 11 L 14 11 Z M 14 2.84375 " clip-rule="nonzero"/></clipPath></defs><path fill="#000000" d="M 16.089844 20.484375 C 16.089844 19.601562 15.371094 18.878906 14.480469 18.878906 L 12.871094 18.878906 L 12.871094 22.085938 L 14.480469 22.085938 C 15.371094 22.085938 16.089844 21.367188 16.089844 20.484375 Z M 16.089844 20.484375 " fill-opacity="1" fill-rule="nonzero"/><g clip-path="url(#6e3ae6dfab)"><path fill="#000000" d="M 32.980469 14.070312 L 4.023438 14.070312 C 1.804688 14.070312 0.00390625 15.867188 0.00390625 18.078125 L 0.00390625 27.699219 C 0.00390625 29.910156 1.804688 31.710938 4.023438 31.710938 L 32.980469 31.710938 C 35.199219 31.710938 37.003906 29.910156 37.003906 27.699219 L 37.003906 18.078125 C 37.003906 15.867188 35.199219 14.070312 32.980469 14.070312 Z M 8.851562 18.878906 L 4.828125 18.878906 L 4.828125 22.085938 L 7.242188 22.085938 C 7.6875 22.085938 8.046875 22.445312 8.046875 22.890625 C 8.046875 23.332031 7.6875 23.691406 7.242188 23.691406 L 4.828125 23.691406 L 4.828125 27.699219 C 4.828125 28.144531 4.46875 28.503906 4.023438 28.503906 C 3.582031 28.503906 3.21875 28.144531 3.21875 27.699219 L 3.21875 18.078125 C 3.21875 17.636719 3.582031 17.277344 4.023438 17.277344 L 8.851562 17.277344 C 9.292969 17.277344 9.65625 17.636719 9.65625 18.078125 C 9.65625 18.519531 9.292969 18.878906 8.851562 18.878906 Z M 17.464844 27.132812 C 17.777344 27.445312 17.777344 27.953125 17.464844 28.265625 C 17.304688 28.421875 17.101562 28.503906 16.894531 28.503906 C 16.6875 28.503906 16.484375 28.421875 16.324219 28.269531 L 12.871094 24.824219 L 12.871094 27.699219 C 12.871094 28.144531 12.511719 28.503906 12.066406 28.503906 C 11.625 28.503906 11.265625 28.144531 11.265625 27.699219 L 11.265625 22.894531 C 11.265625 22.890625 11.265625 22.886719 11.265625 22.882812 L 11.265625 18.078125 C 11.265625 17.636719 11.625 17.277344 12.066406 17.277344 L 14.480469 17.277344 C 16.253906 17.277344 17.699219 18.714844 17.699219 20.484375 C 17.699219 22.253906 16.253906 23.691406 14.480469 23.691406 L 14.011719 23.691406 Z M 23.328125 22.085938 C 23.773438 22.085938 24.132812 22.445312 24.132812 22.890625 C 24.132812 23.332031 23.773438 23.691406 23.328125 23.691406 L 20.917969 23.691406 L 20.917969 26.898438 L 24.9375 26.898438 C 25.382812 26.898438 25.742188 27.257812 25.742188 27.699219 C 25.742188 28.144531 25.382812 28.503906 24.9375 28.503906 L 20.113281 28.503906 C 19.667969 28.503906 19.308594 28.144531 19.308594 27.699219 L 19.308594 18.078125 C 19.308594 17.636719 19.667969 17.277344 20.113281 17.277344 L 24.9375 17.277344 C 25.382812 17.277344 25.742188 17.636719 25.742188 18.078125 C 25.742188 18.519531 25.382812 18.878906 24.9375 18.878906 L 20.917969 18.878906 L 20.917969 22.085938 Z M 31.375 22.085938 C 31.816406 22.085938 32.175781 22.445312 32.175781 22.890625 C 32.175781 23.332031 31.816406 23.691406 31.375 23.691406 L 28.960938 23.691406 L 28.960938 26.898438 L 32.980469 26.898438 C 33.425781 26.898438 33.785156 27.257812 33.785156 27.699219 C 33.785156 28.144531 33.425781 28.503906 32.980469 28.503906 L 28.15625 28.503906 C 27.710938 28.503906 27.351562 28.144531 27.351562 27.699219 L 27.351562 18.078125 C 27.351562 17.636719 27.710938 17.277344 28.15625 17.277344 L 32.980469 17.277344 C 33.425781 17.277344 33.785156 17.636719 33.785156 18.078125 C 33.785156 18.519531 33.425781 18.878906 32.980469 18.878906 L 28.960938 18.878906 L 28.960938 22.085938 Z M 31.375 22.085938 " fill-opacity="1" fill-rule="nonzero"/></g><g clip-path="url(#9ed025255e)"><path fill="#000000" d="M 22.523438 6.851562 C 22.523438 7.117188 22.5 7.378906 22.449219 7.636719 C 22.394531 7.894531 22.320312 8.144531 22.21875 8.386719 C 22.117188 8.628906 21.992188 8.863281 21.847656 9.082031 C 21.699219 9.300781 21.535156 9.503906 21.347656 9.6875 C 21.160156 9.875 20.957031 10.039062 20.738281 10.1875 C 20.519531 10.332031 20.285156 10.457031 20.042969 10.558594 C 19.796875 10.65625 19.546875 10.734375 19.289062 10.785156 C 19.027344 10.835938 18.765625 10.863281 18.503906 10.863281 C 18.238281 10.863281 17.976562 10.835938 17.71875 10.785156 C 17.460938 10.734375 17.207031 10.65625 16.964844 10.558594 C 16.71875 10.457031 16.488281 10.332031 16.269531 10.1875 C 16.050781 10.039062 15.847656 9.875 15.660156 9.6875 C 15.472656 9.503906 15.304688 9.300781 15.160156 9.082031 C 15.011719 8.863281 14.886719 8.628906 14.789062 8.386719 C 14.6875 8.144531 14.609375 7.894531 14.558594 7.636719 C 14.507812 7.378906 14.480469 7.117188 14.480469 6.851562 C 14.480469 6.589844 14.507812 6.328125 14.558594 6.070312 C 14.609375 5.8125 14.6875 5.5625 14.789062 5.320312 C 14.886719 5.074219 15.011719 4.84375 15.160156 4.625 C 15.304688 4.40625 15.472656 4.203125 15.660156 4.019531 C 15.847656 3.832031 16.050781 3.667969 16.269531 3.519531 C 16.488281 3.375 16.71875 3.25 16.964844 3.148438 C 17.207031 3.046875 17.460938 2.972656 17.71875 2.921875 C 17.976562 2.871094 18.238281 2.84375 18.503906 2.84375 C 18.765625 2.84375 19.027344 2.871094 19.289062 2.921875 C 19.546875 2.972656 19.796875 3.046875 20.042969 3.148438 C 20.285156 3.25 20.519531 3.375 20.738281 3.519531 C 20.957031 3.667969 21.160156 3.832031 21.347656 4.019531 C 21.535156 4.203125 21.699219 4.40625 21.847656 4.625 C 21.992188 4.84375 22.117188 5.074219 22.21875 5.320312 C 22.320312 5.5625 22.394531 5.8125 22.449219 6.070312 C 22.5 6.328125 22.523438 6.589844 22.523438 6.851562 Z M 22.523438 6.851562 " fill-opacity="1" fill-rule="nonzero"/></g><path fill="#000000" d="M 21.152344 6.285156 C 20.835938 6.597656 20.835938 7.105469 21.152344 7.417969 L 22.1875 8.449219 C 22.402344 7.960938 22.523438 7.421875 22.523438 6.851562 C 22.523438 6.726562 22.5 6.609375 22.488281 6.484375 L 22.289062 6.289062 C 21.976562 5.972656 21.464844 5.972656 21.152344 6.285156 Z M 21.152344 6.285156 " fill-opacity="1" fill-rule="nonzero"/><path fill="#000000" d="M 30.335938 14.304688 L 24.011719 8.003906 C 23.890625 8.585938 23.65625 9.125 23.367188 9.628906 L 29.195312 15.4375 C 29.351562 15.59375 29.558594 15.671875 29.765625 15.671875 C 29.96875 15.671875 30.175781 15.59375 30.335938 15.4375 C 30.648438 15.125 30.648438 14.617188 30.335938 14.304688 Z M 30.335938 14.304688 " fill-opacity="1" fill-rule="nonzero"/><path fill="#000000" d="M 15.855469 6.285156 C 15.542969 5.972656 15.03125 5.972656 14.71875 6.285156 L 14.519531 6.484375 C 14.507812 6.609375 14.480469 6.726562 14.480469 6.851562 C 14.480469 7.421875 14.605469 7.960938 14.820312 8.453125 L 15.855469 7.421875 C 16.167969 7.105469 16.167969 6.601562 15.855469 6.285156 Z M 15.855469 6.285156 " fill-opacity="1" fill-rule="nonzero"/><path fill="#000000" d="M 12.992188 8.003906 L 6.671875 14.304688 C 6.359375 14.617188 6.359375 15.125 6.671875 15.4375 C 6.832031 15.59375 7.035156 15.671875 7.242188 15.671875 C 7.449219 15.671875 7.652344 15.59375 7.8125 15.4375 L 13.640625 9.628906 C 13.347656 9.125 13.117188 8.589844 12.992188 8.003906 Z M 12.992188 8.003906 " fill-opacity="1" fill-rule="nonzero"/></svg>