<svg xmlns="http://www.w3.org/2000/svg" xmlns:xlink="http://www.w3.org/1999/xlink" width="50" zoomAndPan="magnify" viewBox="0 0 37.5 37.499999" height="50" preserveAspectRatio="xMidYMid meet" version="1.0"><defs><clipPath id="84f5786466"><path d="M 3.027344 0 L 34.113281 0 L 34.113281 37.007812 L 3.027344 37.007812 Z M 3.027344 0 " clip-rule="nonzero"/></clipPath></defs><g clip-path="url(#84f5786466)"><path fill="#000000" d="M 29.800781 21.414062 C 29.714844 21.414062 29.714844 21.414062 29.800781 21.414062 L 29.714844 20.644531 C 29.714844 20.214844 29.371094 19.875 28.9375 19.789062 C 28.679688 19.789062 28.421875 19.703125 28.164062 19.703125 C 28.164062 19.703125 28.078125 19.617188 28.078125 19.617188 C 26.445312 18.160156 24.636719 17.132812 22.742188 16.53125 C 25.496094 15.078125 27.390625 12.164062 27.390625 8.824219 C 27.390625 3.941406 23.433594 0 18.527344 0 C 13.621094 0 9.664062 3.941406 9.664062 8.824219 C 9.664062 12.164062 11.558594 15.078125 14.3125 16.53125 C 12.417969 17.132812 10.609375 18.160156 8.976562 19.53125 C 8.976562 19.53125 8.890625 19.617188 8.890625 19.703125 C 8.632812 19.703125 8.375 19.703125 8.117188 19.789062 C 7.6875 19.875 7.339844 20.214844 7.339844 20.644531 L 7.339844 21.332031 C 7.253906 21.414062 7.167969 21.414062 7.167969 21.5 C 4.585938 24.84375 3.039062 29.382812 3.039062 33.664062 C 3.039062 34.179688 3.382812 34.523438 3.898438 34.523438 L 7.425781 34.523438 C 7.425781 34.695312 7.511719 34.863281 7.6875 34.949219 C 7.859375 35.121094 8.117188 35.207031 8.375 35.207031 C 14.484375 34.609375 18.097656 36.835938 18.097656 36.921875 C 18.097656 36.921875 18.183594 36.921875 18.183594 37.007812 C 18.183594 37.007812 18.269531 37.007812 18.269531 37.007812 C 18.355469 37.007812 18.355469 37.007812 18.441406 37.007812 C 18.441406 37.007812 18.527344 37.007812 18.527344 37.007812 C 18.613281 37.007812 18.699219 37.007812 18.785156 37.007812 C 18.785156 37.007812 18.785156 37.007812 18.871094 37.007812 C 18.957031 37.007812 18.957031 37.007812 19.042969 36.921875 C 19.042969 36.921875 22.65625 34.609375 28.765625 35.207031 C 29.023438 35.207031 29.285156 35.121094 29.457031 34.949219 C 29.542969 34.863281 29.628906 34.695312 29.714844 34.523438 L 33.242188 34.523438 C 33.757812 34.523438 34.101562 34.179688 34.101562 33.664062 C 34.101562 29.039062 32.554688 24.671875 29.800781 21.414062 Z M 11.386719 8.824219 C 11.386719 4.882812 14.570312 1.714844 18.527344 1.714844 C 22.484375 1.714844 25.667969 4.882812 25.667969 8.824219 C 25.667969 12.765625 22.484375 15.933594 18.527344 15.933594 C 14.570312 15.933594 11.386719 12.765625 11.386719 8.824219 Z M 25.324219 19.703125 C 21.796875 19.960938 19.472656 20.988281 18.527344 21.5 C 17.582031 20.988281 15.257812 19.960938 11.730469 19.703125 C 13.796875 18.332031 16.117188 17.648438 18.527344 17.648438 C 20.9375 17.648438 23.261719 18.332031 25.324219 19.703125 Z M 7.339844 24.328125 L 7.339844 32.808594 L 4.761719 32.808594 C 4.847656 29.898438 5.792969 26.8125 7.339844 24.328125 Z M 27.992188 33.410156 C 23.003906 33.066406 19.730469 34.523438 18.527344 35.207031 C 17.324219 34.609375 14.054688 33.152344 9.0625 33.410156 L 9.0625 21.414062 C 14.65625 21.074219 18.011719 23.128906 18.097656 23.128906 C 18.183594 23.128906 18.269531 23.214844 18.269531 23.214844 C 18.269531 23.214844 18.355469 23.214844 18.355469 23.214844 C 18.441406 23.214844 18.527344 23.214844 18.613281 23.214844 C 18.613281 23.214844 18.699219 23.214844 18.699219 23.214844 C 18.785156 23.214844 18.871094 23.128906 18.957031 23.128906 C 18.957031 23.128906 18.957031 23.128906 19.042969 23.128906 C 19.128906 23.042969 22.398438 20.988281 27.992188 21.414062 Z M 29.714844 32.808594 L 29.714844 24.328125 C 31.261719 26.8125 32.210938 29.726562 32.296875 32.808594 Z M 29.714844 32.808594 " fill-opacity="1" fill-rule="nonzero"/></g></svg>