<svg xmlns="http://www.w3.org/2000/svg" xmlns:xlink="http://www.w3.org/1999/xlink" width="50" zoomAndPan="magnify" viewBox="0 0 37.5 37.499999" height="50" preserveAspectRatio="xMidYMid meet" version="1.0"><defs><clipPath id="737949125d"><path d="M 2.707031 0 L 34.53125 0 L 34.53125 37 L 2.707031 37 Z M 2.707031 0 " clip-rule="nonzero"/></clipPath></defs><g clip-path="url(#737949125d)"><path fill="#000000" d="M 18.617188 22.292969 C 17.261719 22.292969 16.148438 23.398438 16.148438 24.746094 L 16.148438 25.394531 C 16.148438 27.289062 18.242188 28.476562 19.875 27.503906 C 20.609375 27.066406 21.089844 26.28125 21.089844 25.394531 L 21.089844 24.746094 C 21.089844 23.398438 19.976562 22.292969 18.617188 22.292969 Z M 16.078125 22.222656 C 17.484375 20.824219 19.75 20.824219 21.15625 22.222656 C 21.808594 22.871094 22.214844 23.761719 22.214844 24.742188 L 22.214844 25.394531 C 22.214844 26.207031 21.9375 26.957031 21.472656 27.558594 C 23.242188 28.027344 24.523438 29.632812 24.523438 31.496094 L 24.523438 35.175781 C 24.523438 36.183594 23.699219 37 22.6875 37 C 19.972656 37 17.261719 37 14.546875 37 C 13.539062 37 12.710938 36.183594 12.710938 35.175781 L 12.710938 31.496094 C 12.710938 29.632812 13.992188 28.027344 15.761719 27.558594 C 15.300781 26.957031 15.019531 26.207031 15.019531 25.394531 L 15.019531 24.742188 C 15.023438 23.761719 15.425781 22.871094 16.078125 22.222656 Z M 20.3125 28.542969 C 19.804688 28.808594 19.230469 28.964844 18.621094 28.964844 C 18.007812 28.964844 17.429688 28.808594 16.925781 28.542969 L 16.8125 28.542969 C 15.179688 28.542969 13.835938 29.871094 13.835938 31.496094 L 13.835938 35.179688 C 13.835938 35.566406 14.15625 35.886719 14.550781 35.886719 L 14.921875 35.886719 L 14.921875 31.253906 C 14.921875 30.949219 15.171875 30.695312 15.480469 30.695312 C 15.792969 30.695312 16.042969 30.949219 16.042969 31.253906 L 16.042969 35.886719 L 21.191406 35.886719 L 21.191406 31.253906 C 21.191406 30.949219 21.445312 30.695312 21.753906 30.695312 C 22.0625 30.695312 22.316406 30.949219 22.316406 31.253906 L 22.316406 35.886719 C 22.660156 35.886719 22.933594 35.929688 23.191406 35.675781 C 23.320312 35.546875 23.398438 35.371094 23.398438 35.179688 L 23.398438 31.496094 C 23.398438 29.871094 22.058594 28.542969 20.425781 28.542969 Z M 29.042969 28.570312 C 29.257812 28.351562 29.613281 28.347656 29.835938 28.5625 C 30.054688 28.773438 30.058594 29.128906 29.847656 29.347656 L 26.5625 32.679688 C 26.34375 32.902344 25.992188 32.90625 25.769531 32.691406 C 25.546875 32.476562 25.542969 32.125 25.757812 31.90625 Z M 7.390625 29.347656 C 7.175781 29.125 7.179688 28.773438 7.402344 28.5625 C 7.625 28.347656 7.980469 28.351562 8.191406 28.570312 L 11.476562 31.90625 C 11.691406 32.125 11.6875 32.476562 11.464844 32.691406 C 11.246094 32.90625 10.890625 32.902344 10.675781 32.679688 Z M 18.632812 7.492188 C 20.71875 7.492188 21.769531 10.003906 20.292969 11.472656 C 18.820312 12.9375 16.285156 11.894531 16.285156 9.824219 C 16.285156 8.535156 17.335938 7.492188 18.632812 7.492188 Z M 19.5 8.964844 C 18.730469 8.203125 17.410156 8.746094 17.410156 9.820312 C 17.410156 10.902344 18.730469 11.445312 19.5 10.679688 C 19.976562 10.207031 19.976562 9.4375 19.5 8.964844 Z M 18.316406 4.984375 L 18.953125 4.984375 C 19.449219 4.984375 19.855469 5.390625 19.855469 5.882812 L 19.855469 5.960938 L 20.519531 6.234375 C 20.71875 6.039062 20.914062 5.917969 21.21875 5.917969 C 21.441406 5.917969 21.679688 6.003906 21.851562 6.179688 L 21.855469 6.179688 L 22.304688 6.625 C 22.660156 6.976562 22.660156 7.542969 22.304688 7.890625 L 22.246094 7.949219 C 22.300781 8.054688 22.351562 8.164062 22.398438 8.273438 L 22.402344 8.273438 C 22.445312 8.386719 22.488281 8.496094 22.523438 8.609375 C 22.832031 8.609375 23.085938 8.679688 23.289062 8.917969 C 23.421875 9.078125 23.507812 9.28125 23.507812 9.503906 L 23.507812 10.140625 C 23.507812 10.628906 23.101562 11.035156 22.605469 11.035156 L 22.523438 11.035156 L 22.246094 11.695312 C 22.453125 11.898438 22.570312 12.089844 22.570312 12.386719 C 22.570312 12.609375 22.480469 12.847656 22.304688 13.019531 L 21.855469 13.46875 C 21.503906 13.816406 20.929688 13.816406 20.578125 13.46875 L 20.519531 13.410156 L 19.855469 13.683594 C 19.855469 13.972656 19.800781 14.191406 19.589844 14.398438 C 19.425781 14.558594 19.203125 14.660156 18.953125 14.660156 L 18.3125 14.660156 C 17.820312 14.660156 17.410156 14.257812 17.410156 13.765625 L 17.410156 13.683594 L 17.074219 13.5625 C 16.964844 13.515625 16.855469 13.464844 16.746094 13.410156 C 16.542969 13.617188 16.347656 13.730469 16.050781 13.730469 C 15.820312 13.730469 15.589844 13.640625 15.414062 13.46875 L 14.921875 12.972656 C 14.609375 12.597656 14.628906 12.085938 14.964844 11.753906 L 15.023438 11.695312 C 14.96875 11.59375 14.914062 11.484375 14.871094 11.371094 L 14.867188 11.371094 C 14.820312 11.261719 14.78125 11.148438 14.746094 11.035156 C 14.453125 11.035156 14.234375 10.980469 14.023438 10.773438 C 13.863281 10.613281 13.761719 10.386719 13.761719 10.140625 L 13.761719 9.503906 C 13.761719 9.261719 13.863281 9.035156 14.027344 8.871094 L 14.023438 8.871094 C 14.234375 8.664062 14.453125 8.609375 14.746094 8.609375 L 15.019531 7.949219 C 14.816406 7.746094 14.699219 7.550781 14.699219 7.257812 L 14.703125 7.257812 C 14.703125 7.035156 14.789062 6.796875 14.964844 6.628906 L 14.964844 6.625 L 15.414062 6.179688 C 15.765625 5.828125 16.34375 5.832031 16.6875 6.179688 L 16.746094 6.234375 C 16.851562 6.179688 16.960938 6.132812 17.074219 6.082031 C 17.183594 6.039062 17.296875 5.996094 17.410156 5.960938 C 17.410156 5.671875 17.464844 5.457031 17.675781 5.246094 C 17.839844 5.085938 18.066406 4.984375 18.316406 4.984375 Z M 18.730469 6.101562 L 18.535156 6.101562 C 18.535156 6.53125 18.277344 6.882812 17.867188 6.992188 C 17.742188 7.027344 17.621094 7.066406 17.503906 7.113281 C 17.152344 7.261719 16.976562 7.445312 16.589844 7.394531 C 16.378906 7.367188 16.207031 7.277344 16.050781 7.125 L 15.914062 7.261719 L 15.933594 7.277344 L 15.933594 7.28125 C 16.222656 7.566406 16.277344 8.007812 16.074219 8.359375 C 15.746094 8.921875 15.832031 9.261719 15.460938 9.542969 C 15.289062 9.671875 15.105469 9.726562 14.886719 9.726562 L 14.886719 9.917969 C 15.316406 9.917969 15.675781 10.175781 15.785156 10.582031 C 15.816406 10.707031 15.855469 10.828125 15.90625 10.941406 L 15.902344 10.945312 C 16.054688 11.296875 16.242188 11.46875 16.1875 11.851562 C 16.160156 12.0625 16.070312 12.230469 15.914062 12.386719 L 16.050781 12.519531 C 16.355469 12.21875 16.792969 12.152344 17.15625 12.363281 C 17.265625 12.425781 17.382812 12.484375 17.503906 12.53125 C 17.847656 12.675781 18.105469 12.660156 18.351562 12.976562 C 18.480469 13.144531 18.535156 13.324219 18.535156 13.546875 L 18.730469 13.546875 C 18.730469 13.117188 18.988281 12.761719 19.398438 12.65625 C 20.035156 12.488281 20.21875 12.191406 20.675781 12.25 C 20.886719 12.277344 21.058594 12.367188 21.214844 12.523438 L 21.351562 12.386719 L 21.335938 12.367188 C 21.046875 12.082031 20.984375 11.640625 21.191406 11.289062 C 21.320312 11.0625 21.417969 10.832031 21.484375 10.585938 C 21.589844 10.191406 21.945312 9.921875 22.355469 9.921875 L 22.382812 9.921875 L 22.382812 9.726562 C 21.949219 9.726562 21.59375 9.46875 21.484375 9.0625 C 21.453125 8.9375 21.410156 8.816406 21.363281 8.703125 C 21.210938 8.351562 21.027344 8.175781 21.078125 7.796875 C 21.105469 7.585938 21.199219 7.410156 21.351562 7.261719 L 21.214844 7.125 C 20.910156 7.425781 20.476562 7.492188 20.109375 7.28125 C 19.539062 6.957031 19.203125 7.039062 18.917969 6.671875 C 18.789062 6.503906 18.730469 6.320312 18.730469 6.101562 Z M 28.628906 9.785156 C 28.941406 9.785156 29.191406 10.039062 29.191406 10.34375 C 29.191406 10.652344 28.941406 10.902344 28.628906 10.902344 L 27.421875 10.902344 C 27.113281 10.902344 26.859375 10.652344 26.859375 10.34375 C 26.859375 10.035156 27.113281 9.785156 27.421875 9.785156 Z M 8.605469 10.902344 C 8.296875 10.902344 8.042969 10.652344 8.042969 10.34375 C 8.042969 10.035156 8.296875 9.785156 8.605469 9.785156 L 9.8125 9.785156 C 10.125 9.785156 10.375 10.039062 10.375 10.34375 C 10.375 10.652344 10.125 10.902344 9.8125 10.902344 Z M 9.667969 5.859375 C 9.398438 5.703125 9.308594 5.367188 9.460938 5.097656 C 9.617188 4.832031 9.957031 4.742188 10.226562 4.894531 L 11.273438 5.492188 C 11.539062 5.644531 11.632812 5.984375 11.476562 6.25 C 11.324219 6.519531 10.980469 6.609375 10.714844 6.457031 Z M 13.125 2.015625 C 12.972656 1.75 13.0625 1.410156 13.332031 1.257812 C 13.601562 1.105469 13.945312 1.195312 14.097656 1.460938 L 14.699219 2.5 C 14.855469 2.765625 14.761719 3.105469 14.492188 3.257812 C 14.226562 3.410156 13.882812 3.320312 13.730469 3.050781 Z M 18.058594 0.566406 C 18.058594 0.261719 18.308594 0.0117188 18.617188 0.0117188 C 18.929688 0.0117188 19.179688 0.261719 19.179688 0.566406 L 19.179688 1.605469 C 19.179688 1.910156 18.929688 2.164062 18.617188 2.164062 C 18.308594 2.164062 18.058594 1.910156 18.058594 1.605469 Z M 23.136719 1.460938 C 23.292969 1.195312 23.632812 1.105469 23.902344 1.253906 C 24.171875 1.410156 24.261719 1.746094 24.109375 2.015625 L 23.507812 3.050781 C 23.351562 3.316406 23.011719 3.410156 22.742188 3.257812 C 22.472656 3.101562 22.382812 2.765625 22.535156 2.496094 Z M 27.011719 4.894531 C 27.277344 4.742188 27.621094 4.832031 27.773438 5.097656 C 27.925781 5.367188 27.835938 5.707031 27.566406 5.859375 L 26.523438 6.457031 C 26.253906 6.609375 25.910156 6.519531 25.757812 6.25 C 25.601562 5.984375 25.695312 5.644531 25.964844 5.492188 Z M 16.699219 15.269531 L 20.539062 15.269531 C 20.757812 14.980469 21.035156 14.742188 21.359375 14.5625 C 24.542969 12.765625 25.148438 8.445312 22.546875 5.863281 C 20.378906 3.707031 16.859375 3.707031 14.691406 5.863281 C 12.089844 8.445312 12.695312 12.769531 15.878906 14.5625 C 16.199219 14.742188 16.476562 14.980469 16.699219 15.269531 Z M 21.699219 15.671875 C 22.65625 16.511719 22.285156 18.054688 21.078125 18.402344 C 21.082031 19.601562 20.113281 20.566406 18.917969 20.566406 L 18.320312 20.566406 C 17.125 20.566406 16.152344 19.601562 16.160156 18.402344 C 14.949219 18.058594 14.578125 16.511719 15.535156 15.671875 C 15.472656 15.617188 15.398438 15.570312 15.324219 15.527344 C 11.5 13.375 10.761719 8.179688 13.894531 5.070312 C 16.503906 2.480469 20.730469 2.480469 23.339844 5.070312 C 26.472656 8.179688 25.734375 13.375 21.910156 15.527344 C 21.835938 15.570312 21.765625 15.617188 21.699219 15.671875 Z M 19.953125 18.464844 L 17.28125 18.464844 C 17.304688 19.011719 17.761719 19.453125 18.320312 19.453125 L 18.917969 19.453125 C 19.472656 19.453125 19.929688 19.011719 19.953125 18.464844 Z M 20.632812 16.382812 L 16.601562 16.382812 C 16.179688 16.382812 15.949219 16.898438 16.261719 17.207031 C 16.347656 17.292969 16.472656 17.347656 16.601562 17.347656 L 20.632812 17.347656 C 21.058594 17.347656 21.289062 16.835938 20.976562 16.523438 C 20.890625 16.4375 20.765625 16.382812 20.632812 16.382812 Z M 29.046875 13.742188 C 27.820312 13.742188 26.8125 14.738281 26.8125 15.957031 L 26.8125 16.558594 C 26.8125 18.261719 28.699219 19.34375 30.183594 18.460938 C 30.84375 18.070312 31.277344 17.355469 31.277344 16.558594 L 31.277344 15.957031 C 31.277344 14.742188 30.273438 13.742188 29.046875 13.742188 Z M 29.046875 12.625 C 30.894531 12.625 32.402344 14.125 32.402344 15.957031 L 32.402344 16.558594 C 32.402344 17.292969 32.160156 17.972656 31.75 18.527344 C 33.367188 18.984375 34.53125 20.464844 34.53125 22.175781 L 34.53125 25.570312 C 34.53125 26.519531 33.75 27.296875 32.792969 27.296875 C 30.292969 27.296875 27.792969 27.296875 25.296875 27.296875 C 24.339844 27.296875 23.5625 26.519531 23.5625 25.570312 L 23.5625 22.175781 C 23.5625 20.464844 24.726562 18.984375 26.34375 18.527344 C 25.933594 17.972656 25.6875 17.292969 25.6875 16.558594 L 25.6875 15.957031 C 25.691406 14.125 27.199219 12.625 29.046875 12.625 Z M 30.617188 19.5 C 30.148438 19.746094 29.613281 19.890625 29.046875 19.890625 C 28.476562 19.890625 27.945312 19.746094 27.472656 19.5 L 27.382812 19.5 C 25.898438 19.5 24.683594 20.707031 24.683594 22.175781 L 24.683594 25.570312 C 24.683594 25.90625 24.960938 26.179688 25.296875 26.179688 L 25.59375 26.179688 L 25.59375 21.957031 C 25.59375 21.648438 25.847656 21.402344 26.15625 21.402344 C 26.464844 21.402344 26.71875 21.648438 26.71875 21.957031 L 26.71875 26.179688 L 31.371094 26.179688 L 31.371094 21.957031 C 31.371094 21.648438 31.625 21.402344 31.933594 21.402344 C 32.246094 21.402344 32.496094 21.648438 32.496094 21.957031 L 32.496094 26.179688 C 32.78125 26.179688 33.011719 26.214844 33.226562 26 C 33.335938 25.890625 33.40625 25.738281 33.40625 25.570312 L 33.40625 22.175781 C 33.40625 20.707031 32.191406 19.5 30.707031 19.5 Z M 8.191406 13.742188 C 6.964844 13.742188 5.957031 14.738281 5.957031 15.957031 L 5.957031 16.558594 C 5.957031 18.261719 7.84375 19.34375 9.328125 18.460938 C 9.988281 18.070312 10.421875 17.355469 10.421875 16.558594 L 10.421875 15.957031 C 10.421875 14.742188 9.417969 13.742188 8.191406 13.742188 Z M 8.191406 12.625 C 10.039062 12.625 11.546875 14.125 11.546875 15.957031 L 11.546875 16.558594 C 11.546875 17.292969 11.304688 17.972656 10.894531 18.527344 C 12.511719 18.984375 13.675781 20.464844 13.675781 22.175781 L 13.675781 25.570312 C 13.675781 26.519531 12.894531 27.296875 11.941406 27.296875 C 9.441406 27.296875 6.941406 27.296875 4.441406 27.296875 C 3.484375 27.296875 2.703125 26.519531 2.703125 25.570312 L 2.703125 22.175781 C 2.703125 20.464844 3.867188 18.984375 5.488281 18.527344 C 5.078125 17.972656 4.835938 17.292969 4.835938 16.558594 L 4.835938 15.957031 C 4.835938 14.125 6.34375 12.625 8.191406 12.625 Z M 9.761719 19.5 C 9.292969 19.746094 8.757812 19.890625 8.191406 19.890625 C 7.625 19.890625 7.089844 19.746094 6.621094 19.5 L 6.527344 19.5 C 5.046875 19.5 3.828125 20.707031 3.828125 22.175781 L 3.828125 25.570312 C 3.828125 25.90625 4.105469 26.179688 4.441406 26.179688 L 4.742188 26.179688 L 4.742188 21.957031 C 4.742188 21.648438 4.992188 21.402344 5.300781 21.402344 C 5.613281 21.402344 5.863281 21.648438 5.863281 21.957031 L 5.863281 26.179688 L 10.515625 26.179688 L 10.515625 21.957031 C 10.515625 21.648438 10.769531 21.402344 11.078125 21.402344 C 11.390625 21.402344 11.640625 21.648438 11.640625 21.957031 L 11.640625 26.179688 C 11.929688 26.179688 12.15625 26.214844 12.371094 26 C 12.480469 25.890625 12.550781 25.738281 12.550781 25.570312 L 12.550781 22.175781 C 12.550781 20.707031 11.335938 19.5 9.855469 19.5 Z M 9.761719 19.5 " fill-opacity="1" fill-rule="nonzero"/></g></svg>